<svg xmlns="http://www.w3.org/2000/svg" width="180" height="110" viewBox="0 0 180 110">
  <defs><linearGradient id="blue" x2="1" y2="1"><stop stop-color="#91d9ff"/><stop offset="1" stop-color="#0767ff"/></linearGradient></defs>
  <path d="M26 60h129" fill="none" stroke="#69baff" stroke-width="2" stroke-dasharray="5 5"/>
  <g transform="translate(23 22) rotate(-14 30 30)"><rect x="0" y="0" width="67" height="65" rx="10" fill="#dbecff"/><rect x="4" y="4" width="59" height="57" rx="7" fill="white"/><rect x="9" y="9" width="49" height="47" rx="4" fill="#b5e3ff"/><circle cx="21" cy="21" r="6" fill="white"/><path d="m9 48 16-18 10 11 8-10 15 17v8H9Z" fill="url(#blue)"/></g>
  <g transform="translate(112 30) rotate(17 22 26)"><rect width="45" height="53" rx="8" fill="#cfe6ff"/><rect x="3" y="3" width="39" height="47" rx="6" fill="white"/><rect x="7" y="7" width="31" height="39" rx="4" fill="url(#blue)"/><path d="m14 26 6 6 12-14" fill="none" stroke="white" stroke-width="3" stroke-linecap="round" stroke-linejoin="round"/></g>
  <circle cx="101" cy="23" r="11" fill="#289bff" stroke="white" stroke-width="3"/><path d="m96 23 4 4 6-7" fill="none" stroke="white" stroke-width="2" stroke-linecap="round"/>
</svg>
